<mxfile host="app.diagrams.net" agent="Mozilla/5.0 (Windows NT 10.0; Win64; x64) AppleWebKit/537.36 (KHTML, like Gecko) Chrome/138.0.0.0 Safari/537.36" version="28.0.3">
  <diagram name="Página-1" id="QewIsJFBhIIbO_iT9hS-">
    <mxGraphModel grid="1" page="1" gridSize="10" guides="1" tooltips="1" connect="1" arrows="1" fold="1" pageScale="1" pageWidth="827" pageHeight="1169" math="0" shadow="0">
      <root>
        <mxCell id="0" />
        <mxCell id="1" parent="0" />
        <mxCell id="BmHOZUzM5J_liIm--0k--139" value="&lt;div style=&quot;text-align: justify;&quot;&gt;&lt;br&gt;&lt;/div&gt;" style="shape=folder;fontStyle=1;spacingTop=10;tabWidth=166;tabHeight=30;tabPosition=left;html=1;whiteSpace=wrap;" vertex="1" parent="1">
          <mxGeometry x="1250" y="49" width="350" height="340" as="geometry" />
        </mxCell>
        <mxCell id="rgOc0uAUF-WR_RWAinjA-1" value="" style="shape=folder;fontStyle=1;spacingTop=10;tabWidth=110;tabHeight=30;tabPosition=left;html=1;whiteSpace=wrap;align=center;" vertex="1" parent="1">
          <mxGeometry x="1336" y="3990" width="220" height="190" as="geometry" />
        </mxCell>
        <mxCell id="RwaBKhQayg9tyCPEUvnC-4" value="&lt;p style=&quot;text-align: justify;&quot;&gt;&lt;br&gt;&lt;/p&gt;" style="shape=folder;fontStyle=1;spacingTop=10;tabWidth=150;tabHeight=30;tabPosition=left;html=1;whiteSpace=wrap;" vertex="1" parent="1">
          <mxGeometry x="1248.75" y="2770" width="370" height="375" as="geometry" />
        </mxCell>
        <mxCell id="rgOc0uAUF-WR_RWAinjA-2" value="&lt;font style=&quot;font-size: 18px;&quot;&gt;&lt;b&gt;Citas&lt;/b&gt;&lt;/font&gt;" style="text;html=1;align=center;verticalAlign=middle;whiteSpace=wrap;rounded=0;" vertex="1" parent="1">
          <mxGeometry x="1391" y="4020" width="110" height="50" as="geometry" />
        </mxCell>
        <mxCell id="rgOc0uAUF-WR_RWAinjA-3" value="Solicitar agendamiento de Cita" style="ellipse;whiteSpace=wrap;html=1;" vertex="1" parent="1">
          <mxGeometry x="1376" y="4070" width="140" height="80" as="geometry" />
        </mxCell>
        <mxCell id="RwaBKhQayg9tyCPEUvnC-8" value="&lt;div&gt;&lt;font style=&quot;font-size: 18px;&quot;&gt;&lt;b&gt;&amp;nbsp;Contratos&lt;/b&gt;&lt;/font&gt;&lt;/div&gt;&lt;div&gt;&lt;br&gt;&lt;/div&gt;" style="text;html=1;align=center;verticalAlign=middle;whiteSpace=wrap;rounded=0;" vertex="1" parent="1">
          <mxGeometry x="1368.75" y="2825" width="130" height="30" as="geometry" />
        </mxCell>
        <mxCell id="BmHOZUzM5J_liIm--0k--141" value="&lt;font style=&quot;font-size: 18px;&quot;&gt;Autenticación Y &lt;br&gt;Registro&lt;/font&gt;" style="text;align=center;fontStyle=1;verticalAlign=middle;spacingLeft=3;spacingRight=3;strokeColor=none;rotatable=0;points=[[0,0.5],[1,0.5]];portConstraint=eastwest;html=1;" vertex="1" parent="1">
          <mxGeometry x="1342.5" y="104" width="182.5" height="26" as="geometry" />
        </mxCell>
        <mxCell id="RwaBKhQayg9tyCPEUvnC-9" value="Listado de Contratos" style="ellipse;whiteSpace=wrap;html=1;" vertex="1" parent="1">
          <mxGeometry x="1288.75" y="2895" width="130" height="60" as="geometry" />
        </mxCell>
        <mxCell id="RwaBKhQayg9tyCPEUvnC-11" value="&lt;div&gt;Eliminar Contrato&lt;/div&gt;" style="ellipse;whiteSpace=wrap;html=1;" vertex="1" parent="1">
          <mxGeometry x="1448.75" y="2895" width="130" height="60" as="geometry" />
        </mxCell>
        <mxCell id="rgOc0uAUF-WR_RWAinjA-4" value="" style="shape=folder;fontStyle=1;spacingTop=10;tabWidth=80;tabHeight=30;tabPosition=left;html=1;whiteSpace=wrap;align=center;" vertex="1" parent="1">
          <mxGeometry x="1336" y="4200" width="230" height="270" as="geometry" />
        </mxCell>
        <mxCell id="RwaBKhQayg9tyCPEUvnC-13" value="&lt;div&gt;Descargar Contrato (PDF)&lt;/div&gt;" style="ellipse;whiteSpace=wrap;html=1;" vertex="1" parent="1">
          <mxGeometry x="1288.75" y="2975" width="130" height="60" as="geometry" />
        </mxCell>
        <mxCell id="rgOc0uAUF-WR_RWAinjA-5" value="&lt;span style=&quot;font-size: 18px;&quot;&gt;&lt;b&gt;Funciones Globales&lt;/b&gt;&lt;/span&gt;" style="text;html=1;align=center;verticalAlign=middle;whiteSpace=wrap;rounded=0;" vertex="1" parent="1">
          <mxGeometry x="1396" y="4230" width="110" height="50" as="geometry" />
        </mxCell>
        <mxCell id="rgOc0uAUF-WR_RWAinjA-6" value="Recibir notificaciones internas" style="ellipse;whiteSpace=wrap;html=1;" vertex="1" parent="1">
          <mxGeometry x="1376" y="4290" width="140" height="80" as="geometry" />
        </mxCell>
        <mxCell id="RwaBKhQayg9tyCPEUvnC-16" value="&lt;div&gt;Enviar Contrato&lt;/div&gt;" style="ellipse;whiteSpace=wrap;html=1;" vertex="1" parent="1">
          <mxGeometry x="1291.25" y="3056" width="125" height="60" as="geometry" />
        </mxCell>
        <mxCell id="RwaBKhQayg9tyCPEUvnC-14" value="&lt;div&gt;&lt;br&gt;&lt;/div&gt;&lt;div&gt;Cargar Contrato&lt;/div&gt;&lt;div&gt;&lt;br&gt;&lt;/div&gt;" style="ellipse;whiteSpace=wrap;html=1;" vertex="1" parent="1">
          <mxGeometry x="1448.75" y="2975" width="135" height="60" as="geometry" />
        </mxCell>
        <mxCell id="BmHOZUzM5J_liIm--0k--143" value="Iniciar Sesión" style="ellipse;whiteSpace=wrap;html=1;" vertex="1" parent="1">
          <mxGeometry x="1446" y="159" width="120" height="80" as="geometry" />
        </mxCell>
        <mxCell id="BmHOZUzM5J_liIm--0k--144" value="Recuperar Contraseña" style="ellipse;whiteSpace=wrap;html=1;align=center;" vertex="1" parent="1">
          <mxGeometry x="1290" y="269" width="120" height="80" as="geometry" />
        </mxCell>
        <mxCell id="rgOc0uAUF-WR_RWAinjA-7" value="" style="shape=folder;fontStyle=1;spacingTop=10;tabWidth=130;tabHeight=30;tabPosition=left;html=1;whiteSpace=wrap;align=center;" vertex="1" parent="1">
          <mxGeometry x="1258" y="3580" width="350" height="356" as="geometry" />
        </mxCell>
        <mxCell id="rgOc0uAUF-WR_RWAinjA-8" value="&lt;span style=&quot;font-size: 18px;&quot;&gt;&lt;b&gt;Comentarios y galería&lt;/b&gt;&lt;/span&gt;" style="text;html=1;align=center;verticalAlign=middle;whiteSpace=wrap;rounded=0;" vertex="1" parent="1">
          <mxGeometry x="1318" y="3610" width="230" height="50" as="geometry" />
        </mxCell>
        <mxCell id="rgOc0uAUF-WR_RWAinjA-9" value="Agregar imagen" style="ellipse;whiteSpace=wrap;html=1;" vertex="1" parent="1">
          <mxGeometry x="1288" y="3660" width="140" height="80" as="geometry" />
        </mxCell>
        <mxCell id="RwaBKhQayg9tyCPEUvnC-21" value="&lt;p style=&quot;text-align: justify;&quot;&gt;&lt;br&gt;&lt;/p&gt;" style="shape=folder;fontStyle=1;spacingTop=10;tabWidth=150;tabHeight=30;tabPosition=left;html=1;whiteSpace=wrap;" vertex="1" parent="1">
          <mxGeometry x="1238.75" y="3220" width="390" height="300" as="geometry" />
        </mxCell>
        <mxCell id="RwaBKhQayg9tyCPEUvnC-22" value="&lt;div&gt;&lt;div&gt;&lt;span style=&quot;font-size: 18px;&quot;&gt;&lt;b&gt;&amp;nbsp;Encuestas&lt;/b&gt;&lt;/span&gt;&lt;/div&gt;&lt;/div&gt;&lt;div&gt;&lt;br&gt;&lt;/div&gt;" style="text;html=1;align=center;verticalAlign=middle;whiteSpace=wrap;rounded=0;" vertex="1" parent="1">
          <mxGeometry x="1368.75" y="3269" width="130" height="30" as="geometry" />
        </mxCell>
        <mxCell id="RwaBKhQayg9tyCPEUvnC-23" value="&lt;div&gt;&lt;br&gt;&lt;/div&gt;&lt;div&gt;&lt;div&gt;Listado de Encuestas&lt;/div&gt;&lt;/div&gt;&lt;div&gt;&lt;br&gt;&lt;/div&gt;" style="ellipse;whiteSpace=wrap;html=1;" vertex="1" parent="1">
          <mxGeometry x="1278.75" y="3329" width="130" height="60" as="geometry" />
        </mxCell>
        <mxCell id="BmHOZUzM5J_liIm--0k--146" value="&lt;div style=&quot;text-align: justify;&quot;&gt;&lt;br&gt;&lt;/div&gt;" style="shape=folder;fontStyle=1;spacingTop=10;tabWidth=166;tabHeight=30;tabPosition=left;html=1;whiteSpace=wrap;" vertex="1" parent="1">
          <mxGeometry x="1242" y="1050" width="366" height="456" as="geometry" />
        </mxCell>
        <mxCell id="RwaBKhQayg9tyCPEUvnC-25" value="&lt;div&gt;&lt;div&gt;Diligenciar Encuesta Satisfacción&lt;/div&gt;&lt;/div&gt;" style="ellipse;whiteSpace=wrap;html=1;" vertex="1" parent="1">
          <mxGeometry x="1458.75" y="3322.5" width="135" height="73" as="geometry" />
        </mxCell>
        <mxCell id="RwaBKhQayg9tyCPEUvnC-24" value="&lt;div&gt;&lt;div&gt;Crear Encuesta&lt;/div&gt;&lt;/div&gt;" style="ellipse;whiteSpace=wrap;html=1;" vertex="1" parent="1">
          <mxGeometry x="1278.75" y="3426.5" width="130" height="60" as="geometry" />
        </mxCell>
        <mxCell id="rgOc0uAUF-WR_RWAinjA-10" value="Eliminar imagen" style="ellipse;whiteSpace=wrap;html=1;" vertex="1" parent="1">
          <mxGeometry x="1288" y="3745" width="140" height="80" as="geometry" />
        </mxCell>
        <mxCell id="BmHOZUzM5J_liIm--0k--148" value="Gestionar Cuentas Cliente&amp;nbsp;" style="ellipse;whiteSpace=wrap;html=1;" vertex="1" parent="1">
          <mxGeometry x="1278" y="1166" width="120" height="80" as="geometry" />
        </mxCell>
        <mxCell id="BmHOZUzM5J_liIm--0k--145" value="Cerrar Sesión" style="ellipse;whiteSpace=wrap;html=1;" vertex="1" parent="1">
          <mxGeometry x="1446" y="269" width="120" height="80" as="geometry" />
        </mxCell>
        <mxCell id="rgOc0uAUF-WR_RWAinjA-11" value="Añadir comentario en galería" style="ellipse;whiteSpace=wrap;html=1;" vertex="1" parent="1">
          <mxGeometry x="1438" y="3660" width="140" height="80" as="geometry" />
        </mxCell>
        <mxCell id="BmHOZUzM5J_liIm--0k--150" value="Editar Cuenta" style="ellipse;whiteSpace=wrap;html=1;" vertex="1" parent="1">
          <mxGeometry x="1278" y="1276" width="120" height="80" as="geometry" />
        </mxCell>
        <mxCell id="BmHOZUzM5J_liIm--0k--149" value="Crear Cuenta" style="ellipse;whiteSpace=wrap;html=1;" vertex="1" parent="1">
          <mxGeometry x="1458" y="1166" width="120" height="80" as="geometry" />
        </mxCell>
        <mxCell id="BmHOZUzM5J_liIm--0k--147" value="&lt;span style=&quot;font-size: 18px;&quot;&gt;Cuentas&lt;/span&gt;" style="text;align=center;fontStyle=1;verticalAlign=middle;spacingLeft=3;spacingRight=3;strokeColor=none;rotatable=0;points=[[0,0.5],[1,0.5]];portConstraint=eastwest;html=1;" vertex="1" parent="1">
          <mxGeometry x="1342.5" y="1116" width="165" height="26" as="geometry" />
        </mxCell>
        <mxCell id="rgOc0uAUF-WR_RWAinjA-12" value="Seleccionar comentarios públicos" style="ellipse;whiteSpace=wrap;html=1;" vertex="1" parent="1">
          <mxGeometry x="1438" y="3745" width="140" height="80" as="geometry" />
        </mxCell>
        <mxCell id="BmHOZUzM5J_liIm--0k--151" value="Eliminar Cuenta" style="ellipse;whiteSpace=wrap;html=1;" vertex="1" parent="1">
          <mxGeometry x="1458" y="1276" width="120" height="80" as="geometry" />
        </mxCell>
        <mxCell id="BmHOZUzM5J_liIm--0k--152" value="Cambiar estado de cuenta" style="ellipse;whiteSpace=wrap;html=1;" vertex="1" parent="1">
          <mxGeometry x="1365" y="1396" width="120" height="80" as="geometry" />
        </mxCell>
        <mxCell id="BmHOZUzM5J_liIm--0k--153" value="&lt;div style=&quot;text-align: justify;&quot;&gt;&lt;br&gt;&lt;/div&gt;" style="shape=folder;fontStyle=1;spacingTop=10;tabWidth=166;tabHeight=30;tabPosition=left;html=1;whiteSpace=wrap;" vertex="1" parent="1">
          <mxGeometry x="1250" y="499" width="350" height="466" as="geometry" />
        </mxCell>
        <mxCell id="BmHOZUzM5J_liIm--0k--154" value="&lt;span style=&quot;font-size: 18px;&quot;&gt;Perfil&lt;/span&gt;" style="text;align=center;fontStyle=1;verticalAlign=middle;spacingLeft=3;spacingRight=3;strokeColor=none;rotatable=0;points=[[0,0.5],[1,0.5]];portConstraint=eastwest;html=1;" vertex="1" parent="1">
          <mxGeometry x="1342.5" y="559" width="165" height="26" as="geometry" />
        </mxCell>
        <mxCell id="BmHOZUzM5J_liIm--0k--155" value="Gestionar Perfil" style="ellipse;whiteSpace=wrap;html=1;" vertex="1" parent="1">
          <mxGeometry x="1280" y="615" width="120" height="80" as="geometry" />
        </mxCell>
        <mxCell id="BmHOZUzM5J_liIm--0k--156" value="Visualizar Perfil&amp;nbsp;" style="ellipse;whiteSpace=wrap;html=1;" vertex="1" parent="1">
          <mxGeometry x="1450" y="609" width="120" height="80" as="geometry" />
        </mxCell>
        <mxCell id="BmHOZUzM5J_liIm--0k--157" value="Solicitud cambio de documento" style="ellipse;whiteSpace=wrap;html=1;" vertex="1" parent="1">
          <mxGeometry x="1280" y="719" width="120" height="80" as="geometry" />
        </mxCell>
        <mxCell id="BmHOZUzM5J_liIm--0k--158" value="Editar Perfil" style="ellipse;whiteSpace=wrap;html=1;" vertex="1" parent="1">
          <mxGeometry x="1450" y="719" width="120" height="80" as="geometry" />
        </mxCell>
        <mxCell id="BmHOZUzM5J_liIm--0k--159" value="Cambiar contraseña" style="ellipse;whiteSpace=wrap;html=1;" vertex="1" parent="1">
          <mxGeometry x="1280" y="845" width="120" height="80" as="geometry" />
        </mxCell>
        <mxCell id="BmHOZUzM5J_liIm--0k--160" value="Cambiar documento" style="ellipse;whiteSpace=wrap;html=1;" vertex="1" parent="1">
          <mxGeometry x="1450" y="839" width="120" height="80" as="geometry" />
        </mxCell>
        <mxCell id="5CHCcjcD-UBx3tt80ufL-4" value="" style="shape=folder;fontStyle=1;spacingTop=10;tabWidth=166;tabHeight=30;tabPosition=left;html=1;whiteSpace=wrap;" vertex="1" parent="1">
          <mxGeometry x="1242" y="2270" width="366" height="392.5" as="geometry" />
        </mxCell>
        <mxCell id="5CHCcjcD-UBx3tt80ufL-6" value="&lt;span style=&quot;font-size: 18px;&quot;&gt;Recursos&lt;/span&gt;" style="text;align=center;fontStyle=1;verticalAlign=middle;spacingLeft=3;spacingRight=3;strokeColor=none;rotatable=0;points=[[0,0.5],[1,0.5]];portConstraint=eastwest;html=1;" vertex="1" parent="1">
          <mxGeometry x="1342.5" y="2307.5" width="165" height="26" as="geometry" />
        </mxCell>
        <mxCell id="5CHCcjcD-UBx3tt80ufL-7" value="&lt;span style=&quot;text-align: left;&quot;&gt;Asignar Recursos a Evento&lt;/span&gt;" style="ellipse;whiteSpace=wrap;html=1;" vertex="1" parent="1">
          <mxGeometry x="1267.5" y="2345" width="140" height="80" as="geometry" />
        </mxCell>
        <mxCell id="5CHCcjcD-UBx3tt80ufL-8" value="&lt;span style=&quot;text-align: left;&quot;&gt;Registrar Recurso&lt;/span&gt;" style="ellipse;whiteSpace=wrap;html=1;" vertex="1" parent="1">
          <mxGeometry x="1447.5" y="2345" width="140" height="80" as="geometry" />
        </mxCell>
        <mxCell id="5CHCcjcD-UBx3tt80ufL-9" value="&lt;span style=&quot;text-align: left;&quot;&gt;Eliminar Recurso&lt;/span&gt;" style="ellipse;whiteSpace=wrap;html=1;" vertex="1" parent="1">
          <mxGeometry x="1267.5" y="2442.5" width="140" height="80" as="geometry" />
        </mxCell>
        <mxCell id="5CHCcjcD-UBx3tt80ufL-10" value="&lt;span style=&quot;text-align: left;&quot;&gt;Editar Recurso&lt;/span&gt;" style="ellipse;whiteSpace=wrap;html=1;" vertex="1" parent="1">
          <mxGeometry x="1447.5" y="2442.5" width="140" height="80" as="geometry" />
        </mxCell>
        <mxCell id="5CHCcjcD-UBx3tt80ufL-13" value="&lt;div style=&quot;text-align: left;&quot;&gt;&lt;span style=&quot;background-color: transparent; color: light-dark(rgb(0, 0, 0), rgb(255, 255, 255));&quot;&gt;Listado de Recursos&lt;/span&gt;&lt;/div&gt;" style="ellipse;whiteSpace=wrap;html=1;" vertex="1" parent="1">
          <mxGeometry x="1267.5" y="2554.5" width="140" height="80" as="geometry" />
        </mxCell>
        <mxCell id="5CHCcjcD-UBx3tt80ufL-18" value="" style="shape=folder;fontStyle=1;spacingTop=10;tabWidth=166;tabHeight=30;tabPosition=left;html=1;whiteSpace=wrap;" vertex="1" parent="1">
          <mxGeometry x="1240" y="1595" width="370" height="592.5" as="geometry" />
        </mxCell>
        <mxCell id="5CHCcjcD-UBx3tt80ufL-19" value="&lt;div&gt;&lt;span style=&quot;font-size: 18px;&quot;&gt;Eventos&lt;/span&gt;&lt;/div&gt;&lt;div&gt;&lt;br&gt;&lt;/div&gt;" style="text;align=center;fontStyle=1;verticalAlign=middle;spacingLeft=3;spacingRight=3;strokeColor=none;rotatable=0;points=[[0,0.5],[1,0.5]];portConstraint=eastwest;html=1;" vertex="1" parent="1">
          <mxGeometry x="1340.5" y="1646" width="165" height="26" as="geometry" />
        </mxCell>
        <mxCell id="5CHCcjcD-UBx3tt80ufL-20" value="&lt;div style=&quot;text-align: left;&quot;&gt;&lt;span style=&quot;background-color: transparent; color: light-dark(rgb(0, 0, 0), rgb(255, 255, 255));&quot;&gt;Gestionar Eventos&lt;/span&gt;&lt;/div&gt;" style="ellipse;whiteSpace=wrap;html=1;" vertex="1" parent="1">
          <mxGeometry x="1260.5" y="1679" width="140" height="80" as="geometry" />
        </mxCell>
        <mxCell id="5CHCcjcD-UBx3tt80ufL-21" value="&lt;div style=&quot;text-align: left;&quot;&gt;Listado de eventos&lt;/div&gt;" style="ellipse;whiteSpace=wrap;html=1;" vertex="1" parent="1">
          <mxGeometry x="1440.5" y="1677" width="140" height="80" as="geometry" />
        </mxCell>
        <mxCell id="5CHCcjcD-UBx3tt80ufL-22" value="&lt;div style=&quot;&quot;&gt;Visualizar Detalles de Evento&lt;/div&gt;" style="ellipse;whiteSpace=wrap;html=1;align=center;" vertex="1" parent="1">
          <mxGeometry x="1260.5" y="1783" width="140" height="80" as="geometry" />
        </mxCell>
        <mxCell id="5CHCcjcD-UBx3tt80ufL-23" value="&lt;div style=&quot;&quot;&gt;Visualizar calendario&lt;/div&gt;" style="ellipse;whiteSpace=wrap;html=1;align=center;" vertex="1" parent="1">
          <mxGeometry x="1440.5" y="1783" width="140" height="80" as="geometry" />
        </mxCell>
        <mxCell id="5CHCcjcD-UBx3tt80ufL-24" value="&lt;div style=&quot;&quot;&gt;Crear Evento&lt;/div&gt;" style="ellipse;whiteSpace=wrap;html=1;align=center;" vertex="1" parent="1">
          <mxGeometry x="1260.5" y="1882.5" width="140" height="80" as="geometry" />
        </mxCell>
        <mxCell id="5CHCcjcD-UBx3tt80ufL-25" value="&lt;div style=&quot;&quot;&gt;Editar Evento&lt;/div&gt;" style="ellipse;whiteSpace=wrap;html=1;align=center;" vertex="1" parent="1">
          <mxGeometry x="1440.5" y="1882.5" width="140" height="80" as="geometry" />
        </mxCell>
        <mxCell id="5CHCcjcD-UBx3tt80ufL-26" value="&lt;div style=&quot;&quot;&gt;Cancelar Evento&lt;/div&gt;" style="ellipse;whiteSpace=wrap;html=1;align=center;" vertex="1" parent="1">
          <mxGeometry x="1250" y="1975" width="140" height="80" as="geometry" />
        </mxCell>
        <mxCell id="5CHCcjcD-UBx3tt80ufL-27" value="&lt;div style=&quot;&quot;&gt;Modificar Estado de evento&lt;/div&gt;" style="ellipse;whiteSpace=wrap;html=1;align=center;" vertex="1" parent="1">
          <mxGeometry x="1450.5" y="1975" width="140" height="80" as="geometry" />
        </mxCell>
        <mxCell id="5CHCcjcD-UBx3tt80ufL-28" value="&lt;div style=&quot;&quot;&gt;Cancelar Evento (Solicitud)&lt;/div&gt;" style="ellipse;whiteSpace=wrap;html=1;align=center;" vertex="1" parent="1">
          <mxGeometry x="1353" y="2075" width="140" height="80" as="geometry" />
        </mxCell>
        <mxCell id="BmHOZUzM5J_liIm--0k--162" value="&lt;font style=&quot;font-size: 24px;&quot;&gt;Usuario&lt;/font&gt;" style="shape=umlActor;verticalLabelPosition=bottom;verticalAlign=top;html=1;outlineConnect=0;" vertex="1" parent="1">
          <mxGeometry x="780" y="89" width="150" height="300" as="geometry" />
        </mxCell>
        <mxCell id="rgOc0uAUF-WR_RWAinjA-19" style="rounded=0;orthogonalLoop=1;jettySize=auto;html=1;exitX=0;exitY=0.3333333333333333;exitDx=0;exitDy=0;exitPerimeter=0;entryX=1;entryY=0.5;entryDx=0;entryDy=0;endArrow=none;endFill=0;" edge="1" parent="1" source="BmHOZUzM5J_liIm--0k--163" target="rgOc0uAUF-WR_RWAinjA-6">
          <mxGeometry relative="1" as="geometry" />
        </mxCell>
        <mxCell id="rgOc0uAUF-WR_RWAinjA-20" style="rounded=0;orthogonalLoop=1;jettySize=auto;html=1;exitX=0;exitY=0.3333333333333333;exitDx=0;exitDy=0;exitPerimeter=0;entryX=1;entryY=0.5;entryDx=0;entryDy=0;endArrow=none;endFill=0;" edge="1" parent="1" source="BmHOZUzM5J_liIm--0k--163" target="BmHOZUzM5J_liIm--0k--167">
          <mxGeometry relative="1" as="geometry">
            <mxPoint x="1680" y="4520" as="targetPoint" />
          </mxGeometry>
        </mxCell>
        <mxCell id="rgOc0uAUF-WR_RWAinjA-23" style="rounded=0;orthogonalLoop=1;jettySize=auto;html=1;exitX=0;exitY=0.3333333333333333;exitDx=0;exitDy=0;exitPerimeter=0;entryX=1;entryY=0.5;entryDx=0;entryDy=0;endArrow=none;endFill=0;" edge="1" parent="1" source="BmHOZUzM5J_liIm--0k--163" target="rgOc0uAUF-WR_RWAinjA-3">
          <mxGeometry relative="1" as="geometry" />
        </mxCell>
        <mxCell id="BmHOZUzM5J_liIm--0k--163" value="&lt;font style=&quot;font-size: 24px;&quot;&gt;Administrador&lt;/font&gt;" style="shape=umlActor;verticalLabelPosition=bottom;verticalAlign=top;html=1;outlineConnect=0;" vertex="1" parent="1">
          <mxGeometry x="2260" y="1672" width="150" height="300" as="geometry" />
        </mxCell>
        <mxCell id="rgOc0uAUF-WR_RWAinjA-17" style="rounded=0;orthogonalLoop=1;jettySize=auto;html=1;exitX=1;exitY=0.3333333333333333;exitDx=0;exitDy=0;exitPerimeter=0;entryX=0;entryY=0.5;entryDx=0;entryDy=0;endArrow=none;endFill=0;" edge="1" parent="1" source="BmHOZUzM5J_liIm--0k--164" target="rgOc0uAUF-WR_RWAinjA-6">
          <mxGeometry relative="1" as="geometry">
            <mxPoint x="1320" y="4700" as="targetPoint" />
          </mxGeometry>
        </mxCell>
        <mxCell id="rgOc0uAUF-WR_RWAinjA-18" style="rounded=0;orthogonalLoop=1;jettySize=auto;html=1;exitX=1;exitY=0.3333333333333333;exitDx=0;exitDy=0;exitPerimeter=0;entryX=0;entryY=0.5;entryDx=0;entryDy=0;endArrow=none;endFill=0;" edge="1" parent="1" source="BmHOZUzM5J_liIm--0k--164" target="BmHOZUzM5J_liIm--0k--167">
          <mxGeometry relative="1" as="geometry">
            <mxPoint x="1250" y="4480" as="targetPoint" />
          </mxGeometry>
        </mxCell>
        <mxCell id="rgOc0uAUF-WR_RWAinjA-22" style="rounded=0;orthogonalLoop=1;jettySize=auto;html=1;exitX=1;exitY=0.3333333333333333;exitDx=0;exitDy=0;exitPerimeter=0;entryX=0;entryY=0.5;entryDx=0;entryDy=0;endArrow=none;endFill=0;" edge="1" parent="1" source="BmHOZUzM5J_liIm--0k--164" target="rgOc0uAUF-WR_RWAinjA-3">
          <mxGeometry relative="1" as="geometry" />
        </mxCell>
        <mxCell id="BmHOZUzM5J_liIm--0k--164" value="&lt;font style=&quot;font-size: 24px;&quot;&gt;Cliente&lt;/font&gt;" style="shape=umlActor;verticalLabelPosition=bottom;verticalAlign=top;html=1;outlineConnect=0;" vertex="1" parent="1">
          <mxGeometry x="780" y="1582.5" width="150" height="300" as="geometry" />
        </mxCell>
        <mxCell id="BmHOZUzM5J_liIm--0k--165" value="&lt;div style=&quot;text-align: left;&quot;&gt;&lt;span style=&quot;background-color: transparent; color: light-dark(rgb(0, 0, 0), rgb(255, 255, 255));&quot;&gt;Gestion Recursos&amp;nbsp;&lt;/span&gt;&lt;/div&gt;" style="ellipse;whiteSpace=wrap;html=1;" vertex="1" parent="1">
          <mxGeometry x="1447.5" y="2554.5" width="140" height="80" as="geometry" />
        </mxCell>
        <mxCell id="BmHOZUzM5J_liIm--0k--166" value="&lt;div&gt;Gestionar&amp;nbsp; Contratos&lt;/div&gt;" style="ellipse;whiteSpace=wrap;html=1;" vertex="1" parent="1">
          <mxGeometry x="1451.25" y="3056" width="125" height="60" as="geometry" />
        </mxCell>
        <mxCell id="RwaBKhQayg9tyCPEUvnC-27" value="&lt;div&gt;&lt;div&gt;Gestionar Encuesta&lt;/div&gt;&lt;/div&gt;" style="ellipse;whiteSpace=wrap;html=1;" vertex="1" parent="1">
          <mxGeometry x="1458.75" y="3420" width="135" height="73" as="geometry" />
        </mxCell>
        <mxCell id="rgOc0uAUF-WR_RWAinjA-16" value="Gestionar Galería" style="ellipse;whiteSpace=wrap;html=1;" vertex="1" parent="1">
          <mxGeometry x="1363" y="3836" width="140" height="80" as="geometry" />
        </mxCell>
        <mxCell id="BmHOZUzM5J_liIm--0k--167" value="Usar Buscador Global" style="ellipse;whiteSpace=wrap;html=1;" vertex="1" parent="1">
          <mxGeometry x="1376" y="4380" width="140" height="80" as="geometry" />
        </mxCell>
        <mxCell id="BmHOZUzM5J_liIm--0k--168" value="" style="endArrow=none;html=1;rounded=0;exitX=1;exitY=0.3333333333333333;exitDx=0;exitDy=0;exitPerimeter=0;entryX=0;entryY=0.5;entryDx=0;entryDy=0;" edge="1" parent="1" source="BmHOZUzM5J_liIm--0k--162" target="BmHOZUzM5J_liIm--0k--142">
          <mxGeometry width="50" height="50" relative="1" as="geometry">
            <mxPoint x="1020" y="530" as="sourcePoint" />
            <mxPoint x="1070" y="480" as="targetPoint" />
          </mxGeometry>
        </mxCell>
        <mxCell id="BmHOZUzM5J_liIm--0k--169" value="" style="endArrow=none;html=1;rounded=0;exitX=1;exitY=0.3333333333333333;exitDx=0;exitDy=0;exitPerimeter=0;entryX=0;entryY=0.5;entryDx=0;entryDy=0;" edge="1" parent="1" source="BmHOZUzM5J_liIm--0k--162" target="BmHOZUzM5J_liIm--0k--144">
          <mxGeometry width="50" height="50" relative="1" as="geometry">
            <mxPoint x="900.5" y="310" as="sourcePoint" />
            <mxPoint x="1260.5" y="320" as="targetPoint" />
          </mxGeometry>
        </mxCell>
        <mxCell id="BmHOZUzM5J_liIm--0k--172" value="" style="endArrow=none;html=1;rounded=0;exitX=1;exitY=0.3333333333333333;exitDx=0;exitDy=0;exitPerimeter=0;entryX=0;entryY=0.5;entryDx=0;entryDy=0;" edge="1" parent="1" source="BmHOZUzM5J_liIm--0k--164" target="BmHOZUzM5J_liIm--0k--143">
          <mxGeometry width="50" height="50" relative="1" as="geometry">
            <mxPoint x="1080" y="290" as="sourcePoint" />
            <mxPoint x="1440" y="410" as="targetPoint" />
          </mxGeometry>
        </mxCell>
        <mxCell id="BmHOZUzM5J_liIm--0k--173" value="" style="endArrow=none;html=1;rounded=0;exitX=1;exitY=0.3333333333333333;exitDx=0;exitDy=0;exitPerimeter=0;entryX=0;entryY=0.5;entryDx=0;entryDy=0;" edge="1" parent="1" source="BmHOZUzM5J_liIm--0k--164" target="BmHOZUzM5J_liIm--0k--144">
          <mxGeometry width="50" height="50" relative="1" as="geometry">
            <mxPoint x="1390" y="1914" as="sourcePoint" />
            <mxPoint x="1906" y="430" as="targetPoint" />
          </mxGeometry>
        </mxCell>
        <mxCell id="BmHOZUzM5J_liIm--0k--174" value="" style="endArrow=none;html=1;rounded=0;exitX=1;exitY=0.3333333333333333;exitDx=0;exitDy=0;exitPerimeter=0;entryX=0;entryY=0.5;entryDx=0;entryDy=0;" edge="1" parent="1" source="BmHOZUzM5J_liIm--0k--164" target="BmHOZUzM5J_liIm--0k--145">
          <mxGeometry width="50" height="50" relative="1" as="geometry">
            <mxPoint x="470" y="2203" as="sourcePoint" />
            <mxPoint x="986" y="719" as="targetPoint" />
          </mxGeometry>
        </mxCell>
        <mxCell id="BmHOZUzM5J_liIm--0k--175" value="" style="endArrow=none;html=1;rounded=0;exitX=0;exitY=0.3333333333333333;exitDx=0;exitDy=0;exitPerimeter=0;entryX=1;entryY=0.5;entryDx=0;entryDy=0;" edge="1" parent="1" source="BmHOZUzM5J_liIm--0k--163" target="BmHOZUzM5J_liIm--0k--144">
          <mxGeometry width="50" height="50" relative="1" as="geometry">
            <mxPoint x="1600" y="2894" as="sourcePoint" />
            <mxPoint x="2116" y="1410" as="targetPoint" />
          </mxGeometry>
        </mxCell>
        <mxCell id="BmHOZUzM5J_liIm--0k--176" value="" style="endArrow=none;html=1;rounded=0;exitX=0;exitY=0.3333333333333333;exitDx=0;exitDy=0;exitPerimeter=0;entryX=1;entryY=0.5;entryDx=0;entryDy=0;" edge="1" parent="1" source="BmHOZUzM5J_liIm--0k--163" target="BmHOZUzM5J_liIm--0k--143">
          <mxGeometry width="50" height="50" relative="1" as="geometry">
            <mxPoint x="2190" y="2544" as="sourcePoint" />
            <mxPoint x="2706" y="1060" as="targetPoint" />
          </mxGeometry>
        </mxCell>
        <mxCell id="BmHOZUzM5J_liIm--0k--177" value="" style="endArrow=none;html=1;rounded=0;exitX=0;exitY=0.3333333333333333;exitDx=0;exitDy=0;exitPerimeter=0;entryX=1;entryY=0.5;entryDx=0;entryDy=0;" edge="1" parent="1" source="BmHOZUzM5J_liIm--0k--163" target="BmHOZUzM5J_liIm--0k--145">
          <mxGeometry width="50" height="50" relative="1" as="geometry">
            <mxPoint x="2000" y="2144" as="sourcePoint" />
            <mxPoint x="2516" y="660" as="targetPoint" />
          </mxGeometry>
        </mxCell>
        <mxCell id="BmHOZUzM5J_liIm--0k--178" value="" style="endArrow=none;html=1;rounded=0;exitX=1;exitY=0.3333333333333333;exitDx=0;exitDy=0;exitPerimeter=0;entryX=0;entryY=0.5;entryDx=0;entryDy=0;" edge="1" parent="1" source="BmHOZUzM5J_liIm--0k--164" target="BmHOZUzM5J_liIm--0k--157">
          <mxGeometry width="50" height="50" relative="1" as="geometry">
            <mxPoint x="710" y="930" as="sourcePoint" />
            <mxPoint x="1070" y="1050" as="targetPoint" />
          </mxGeometry>
        </mxCell>
        <mxCell id="BmHOZUzM5J_liIm--0k--179" value="" style="endArrow=none;html=1;rounded=0;exitX=1;exitY=0.3333333333333333;exitDx=0;exitDy=0;exitPerimeter=0;entryX=0;entryY=0.5;entryDx=0;entryDy=0;" edge="1" parent="1" source="BmHOZUzM5J_liIm--0k--164" target="BmHOZUzM5J_liIm--0k--156">
          <mxGeometry width="50" height="50" relative="1" as="geometry">
            <mxPoint x="670" y="1704" as="sourcePoint" />
            <mxPoint x="1020" y="780" as="targetPoint" />
          </mxGeometry>
        </mxCell>
        <mxCell id="BmHOZUzM5J_liIm--0k--180" value="" style="endArrow=none;html=1;rounded=0;exitX=1;exitY=0.3333333333333333;exitDx=0;exitDy=0;exitPerimeter=0;entryX=0;entryY=0.5;entryDx=0;entryDy=0;" edge="1" parent="1" source="BmHOZUzM5J_liIm--0k--164" target="BmHOZUzM5J_liIm--0k--158">
          <mxGeometry width="50" height="50" relative="1" as="geometry">
            <mxPoint x="1100" y="1784" as="sourcePoint" />
            <mxPoint x="1450" y="860" as="targetPoint" />
          </mxGeometry>
        </mxCell>
        <mxCell id="BmHOZUzM5J_liIm--0k--181" value="" style="endArrow=none;html=1;rounded=0;exitX=1;exitY=0.3333333333333333;exitDx=0;exitDy=0;exitPerimeter=0;entryX=0;entryY=0.5;entryDx=0;entryDy=0;" edge="1" parent="1" source="BmHOZUzM5J_liIm--0k--164" target="BmHOZUzM5J_liIm--0k--159">
          <mxGeometry width="50" height="50" relative="1" as="geometry">
            <mxPoint x="940" y="1693" as="sourcePoint" />
            <mxPoint x="1290" y="769" as="targetPoint" />
          </mxGeometry>
        </mxCell>
        <mxCell id="BmHOZUzM5J_liIm--0k--185" value="" style="endArrow=none;html=1;rounded=0;exitX=0;exitY=0.3333333333333333;exitDx=0;exitDy=0;exitPerimeter=0;entryX=1;entryY=0.5;entryDx=0;entryDy=0;" edge="1" parent="1" source="BmHOZUzM5J_liIm--0k--163" target="BmHOZUzM5J_liIm--0k--156">
          <mxGeometry width="50" height="50" relative="1" as="geometry">
            <mxPoint x="2610" y="2263" as="sourcePoint" />
            <mxPoint x="1920" y="1140" as="targetPoint" />
          </mxGeometry>
        </mxCell>
        <mxCell id="BmHOZUzM5J_liIm--0k--186" value="" style="endArrow=none;html=1;rounded=0;entryX=1;entryY=0.5;entryDx=0;entryDy=0;" edge="1" parent="1" target="BmHOZUzM5J_liIm--0k--155">
          <mxGeometry width="50" height="50" relative="1" as="geometry">
            <mxPoint x="2260" y="1770" as="sourcePoint" />
            <mxPoint x="1860" y="1100" as="targetPoint" />
          </mxGeometry>
        </mxCell>
        <mxCell id="RwaBKhQayg9tyCPEUvnC-29" value="" style="endArrow=none;html=1;rounded=0;exitX=1;exitY=0.3333333333333333;exitDx=0;exitDy=0;exitPerimeter=0;entryX=0;entryY=0.5;entryDx=0;entryDy=0;" edge="1" parent="1" source="BmHOZUzM5J_liIm--0k--164" target="5CHCcjcD-UBx3tt80ufL-21">
          <mxGeometry width="50" height="50" relative="1" as="geometry">
            <mxPoint x="1020" y="2608" as="sourcePoint" />
            <mxPoint x="1370" y="1810" as="targetPoint" />
          </mxGeometry>
        </mxCell>
        <mxCell id="RwaBKhQayg9tyCPEUvnC-30" value="" style="endArrow=none;html=1;rounded=0;exitX=1;exitY=0.3333333333333333;exitDx=0;exitDy=0;exitPerimeter=0;entryX=0;entryY=0.5;entryDx=0;entryDy=0;" edge="1" parent="1" source="BmHOZUzM5J_liIm--0k--164" target="5CHCcjcD-UBx3tt80ufL-22">
          <mxGeometry width="50" height="50" relative="1" as="geometry">
            <mxPoint x="909.5" y="1759" as="sourcePoint" />
            <mxPoint x="1440.5" y="1765" as="targetPoint" />
          </mxGeometry>
        </mxCell>
        <mxCell id="RwaBKhQayg9tyCPEUvnC-31" value="" style="endArrow=none;html=1;rounded=0;exitX=1;exitY=0.3333333333333333;exitDx=0;exitDy=0;exitPerimeter=0;entryX=0;entryY=0.5;entryDx=0;entryDy=0;" edge="1" parent="1" source="BmHOZUzM5J_liIm--0k--164" target="5CHCcjcD-UBx3tt80ufL-28">
          <mxGeometry width="50" height="50" relative="1" as="geometry">
            <mxPoint x="907" y="1710" as="sourcePoint" />
            <mxPoint x="1258" y="1822" as="targetPoint" />
          </mxGeometry>
        </mxCell>
        <mxCell id="RwaBKhQayg9tyCPEUvnC-32" value="" style="endArrow=none;html=1;rounded=0;exitX=1;exitY=0.3333333333333333;exitDx=0;exitDy=0;exitPerimeter=0;entryX=0;entryY=0.5;entryDx=0;entryDy=0;" edge="1" parent="1" source="BmHOZUzM5J_liIm--0k--164" target="RwaBKhQayg9tyCPEUvnC-16">
          <mxGeometry width="50" height="50" relative="1" as="geometry">
            <mxPoint x="897.75" y="2410.25" as="sourcePoint" />
            <mxPoint x="1190" y="2700" as="targetPoint" />
          </mxGeometry>
        </mxCell>
        <mxCell id="BmHOZUzM5J_liIm--0k--187" value="" style="endArrow=none;html=1;rounded=0;exitX=0;exitY=0.3333333333333333;exitDx=0;exitDy=0;exitPerimeter=0;entryX=1;entryY=0.5;entryDx=0;entryDy=0;" edge="1" parent="1" source="BmHOZUzM5J_liIm--0k--163" target="BmHOZUzM5J_liIm--0k--158">
          <mxGeometry width="50" height="50" relative="1" as="geometry">
            <mxPoint x="2220" y="1894" as="sourcePoint" />
            <mxPoint x="1469.9999999999832" y="620" as="targetPoint" />
          </mxGeometry>
        </mxCell>
        <mxCell id="BmHOZUzM5J_liIm--0k--188" value="" style="endArrow=none;html=1;rounded=0;exitX=0;exitY=0.3333333333333333;exitDx=0;exitDy=0;exitPerimeter=0;entryX=1;entryY=0.5;entryDx=0;entryDy=0;" edge="1" parent="1" source="BmHOZUzM5J_liIm--0k--163" target="BmHOZUzM5J_liIm--0k--157">
          <mxGeometry width="50" height="50" relative="1" as="geometry">
            <mxPoint x="2300" y="1863" as="sourcePoint" />
            <mxPoint x="1630" y="1000" as="targetPoint" />
          </mxGeometry>
        </mxCell>
        <mxCell id="BmHOZUzM5J_liIm--0k--189" value="" style="endArrow=none;html=1;rounded=0;exitX=0;exitY=0.3333333333333333;exitDx=0;exitDy=0;exitPerimeter=0;entryX=1;entryY=0.5;entryDx=0;entryDy=0;" edge="1" parent="1" source="BmHOZUzM5J_liIm--0k--163" target="BmHOZUzM5J_liIm--0k--159">
          <mxGeometry width="50" height="50" relative="1" as="geometry">
            <mxPoint x="2740" y="2783" as="sourcePoint" />
            <mxPoint x="1880" y="1770" as="targetPoint" />
          </mxGeometry>
        </mxCell>
        <mxCell id="RwaBKhQayg9tyCPEUvnC-33" value="" style="endArrow=none;html=1;rounded=0;exitX=1;exitY=0.3333333333333333;exitDx=0;exitDy=0;exitPerimeter=0;entryX=0;entryY=0.5;entryDx=0;entryDy=0;" edge="1" parent="1" source="BmHOZUzM5J_liIm--0k--164" target="RwaBKhQayg9tyCPEUvnC-13">
          <mxGeometry width="50" height="50" relative="1" as="geometry">
            <mxPoint x="970" y="2930" as="sourcePoint" />
            <mxPoint x="1321" y="3042" as="targetPoint" />
          </mxGeometry>
        </mxCell>
        <mxCell id="BmHOZUzM5J_liIm--0k--190" value="" style="endArrow=none;html=1;rounded=0;entryX=1;entryY=0.5;entryDx=0;entryDy=0;exitX=0;exitY=0.3333333333333333;exitDx=0;exitDy=0;exitPerimeter=0;" edge="1" parent="1" source="BmHOZUzM5J_liIm--0k--163" target="BmHOZUzM5J_liIm--0k--160">
          <mxGeometry width="50" height="50" relative="1" as="geometry">
            <mxPoint x="2100" y="1780" as="sourcePoint" />
            <mxPoint x="2160" y="1840" as="targetPoint" />
          </mxGeometry>
        </mxCell>
        <mxCell id="RwaBKhQayg9tyCPEUvnC-35" value="" style="endArrow=none;html=1;rounded=0;entryX=0;entryY=0.5;entryDx=0;entryDy=0;" edge="1" parent="1" target="RwaBKhQayg9tyCPEUvnC-14">
          <mxGeometry width="50" height="50" relative="1" as="geometry">
            <mxPoint x="930" y="1680" as="sourcePoint" />
            <mxPoint x="1428" y="3113" as="targetPoint" />
          </mxGeometry>
        </mxCell>
        <mxCell id="BmHOZUzM5J_liIm--0k--193" value="" style="endArrow=none;html=1;rounded=0;exitX=0;exitY=0.3333333333333333;exitDx=0;exitDy=0;exitPerimeter=0;entryX=1;entryY=0.5;entryDx=0;entryDy=0;" edge="1" parent="1" source="BmHOZUzM5J_liIm--0k--163" target="BmHOZUzM5J_liIm--0k--148">
          <mxGeometry width="50" height="50" relative="1" as="geometry">
            <mxPoint x="2660" y="2477" as="sourcePoint" />
            <mxPoint x="1800" y="1590" as="targetPoint" />
          </mxGeometry>
        </mxCell>
        <mxCell id="BmHOZUzM5J_liIm--0k--195" value="" style="endArrow=none;html=1;rounded=0;exitX=0;exitY=0.3333333333333333;exitDx=0;exitDy=0;exitPerimeter=0;entryX=1;entryY=0.5;entryDx=0;entryDy=0;" edge="1" parent="1" source="BmHOZUzM5J_liIm--0k--163" target="BmHOZUzM5J_liIm--0k--149">
          <mxGeometry width="50" height="50" relative="1" as="geometry">
            <mxPoint x="2962" y="2366" as="sourcePoint" />
            <mxPoint x="2100" y="1800" as="targetPoint" />
          </mxGeometry>
        </mxCell>
        <mxCell id="BmHOZUzM5J_liIm--0k--196" value="" style="endArrow=none;html=1;rounded=0;exitX=0;exitY=0.3333333333333333;exitDx=0;exitDy=0;exitPerimeter=0;entryX=1;entryY=0.5;entryDx=0;entryDy=0;" edge="1" parent="1" source="BmHOZUzM5J_liIm--0k--163" target="BmHOZUzM5J_liIm--0k--150">
          <mxGeometry width="50" height="50" relative="1" as="geometry">
            <mxPoint x="2922" y="2486" as="sourcePoint" />
            <mxPoint x="2240" y="1920" as="targetPoint" />
          </mxGeometry>
        </mxCell>
        <mxCell id="BmHOZUzM5J_liIm--0k--197" value="" style="endArrow=none;html=1;rounded=0;exitX=0;exitY=0.3333333333333333;exitDx=0;exitDy=0;exitPerimeter=0;entryX=1;entryY=0.5;entryDx=0;entryDy=0;" edge="1" parent="1" source="BmHOZUzM5J_liIm--0k--163" target="BmHOZUzM5J_liIm--0k--151">
          <mxGeometry width="50" height="50" relative="1" as="geometry">
            <mxPoint x="2912" y="2436" as="sourcePoint" />
            <mxPoint x="2050" y="1980" as="targetPoint" />
          </mxGeometry>
        </mxCell>
        <mxCell id="BmHOZUzM5J_liIm--0k--198" value="" style="endArrow=none;html=1;rounded=0;exitX=0;exitY=0.3333333333333333;exitDx=0;exitDy=0;exitPerimeter=0;entryX=1;entryY=0.5;entryDx=0;entryDy=0;" edge="1" parent="1" source="BmHOZUzM5J_liIm--0k--163" target="BmHOZUzM5J_liIm--0k--152">
          <mxGeometry width="50" height="50" relative="1" as="geometry">
            <mxPoint x="3092" y="2426" as="sourcePoint" />
            <mxPoint x="2230" y="1970" as="targetPoint" />
          </mxGeometry>
        </mxCell>
        <mxCell id="BmHOZUzM5J_liIm--0k--199" value="" style="endArrow=none;html=1;rounded=0;exitX=1;exitY=0.3333333333333333;exitDx=0;exitDy=0;exitPerimeter=0;entryX=0;entryY=0.5;entryDx=0;entryDy=0;" edge="1" parent="1" source="BmHOZUzM5J_liIm--0k--162" target="BmHOZUzM5J_liIm--0k--142">
          <mxGeometry width="50" height="50" relative="1" as="geometry">
            <mxPoint x="930" y="189" as="sourcePoint" />
            <mxPoint x="1446" y="199" as="targetPoint" />
          </mxGeometry>
        </mxCell>
        <mxCell id="BmHOZUzM5J_liIm--0k--142" value="Registrarse" style="ellipse;whiteSpace=wrap;html=1;" vertex="1" parent="1">
          <mxGeometry x="1283.75" y="150" width="120" height="80" as="geometry" />
        </mxCell>
        <mxCell id="BmHOZUzM5J_liIm--0k--200" value="" style="endArrow=none;html=1;rounded=0;exitX=0;exitY=0.3333333333333333;exitDx=0;exitDy=0;exitPerimeter=0;entryX=1;entryY=0.5;entryDx=0;entryDy=0;" edge="1" parent="1" source="BmHOZUzM5J_liIm--0k--163" target="5CHCcjcD-UBx3tt80ufL-20">
          <mxGeometry width="50" height="50" relative="1" as="geometry">
            <mxPoint x="2592" y="2396" as="sourcePoint" />
            <mxPoint x="1730" y="1940" as="targetPoint" />
          </mxGeometry>
        </mxCell>
        <mxCell id="BmHOZUzM5J_liIm--0k--201" value="" style="endArrow=none;html=1;rounded=0;exitX=0;exitY=0.3333333333333333;exitDx=0;exitDy=0;exitPerimeter=0;entryX=1;entryY=0.5;entryDx=0;entryDy=0;" edge="1" parent="1" source="BmHOZUzM5J_liIm--0k--163" target="5CHCcjcD-UBx3tt80ufL-21">
          <mxGeometry width="50" height="50" relative="1" as="geometry">
            <mxPoint x="2569" y="2015.5" as="sourcePoint" />
            <mxPoint x="1710" y="1962.5" as="targetPoint" />
          </mxGeometry>
        </mxCell>
        <mxCell id="BmHOZUzM5J_liIm--0k--203" value="" style="endArrow=none;html=1;rounded=0;exitX=0;exitY=0.3333333333333333;exitDx=0;exitDy=0;exitPerimeter=0;entryX=1;entryY=0.5;entryDx=0;entryDy=0;" edge="1" parent="1" source="BmHOZUzM5J_liIm--0k--163" target="5CHCcjcD-UBx3tt80ufL-22">
          <mxGeometry width="50" height="50" relative="1" as="geometry">
            <mxPoint x="2559" y="1933" as="sourcePoint" />
            <mxPoint x="1700" y="1880" as="targetPoint" />
          </mxGeometry>
        </mxCell>
        <mxCell id="BmHOZUzM5J_liIm--0k--204" value="" style="endArrow=none;html=1;rounded=0;exitX=0;exitY=0.5;exitDx=0;exitDy=0;" edge="1" parent="1" source="5CHCcjcD-UBx3tt80ufL-23">
          <mxGeometry width="50" height="50" relative="1" as="geometry">
            <mxPoint x="2569" y="1943" as="sourcePoint" />
            <mxPoint x="930" y="1680" as="targetPoint" />
          </mxGeometry>
        </mxCell>
        <mxCell id="BmHOZUzM5J_liIm--0k--205" value="" style="endArrow=none;html=1;rounded=0;entryX=1;entryY=0.5;entryDx=0;entryDy=0;" edge="1" parent="1" target="5CHCcjcD-UBx3tt80ufL-23">
          <mxGeometry width="50" height="50" relative="1" as="geometry">
            <mxPoint x="2260" y="1770" as="sourcePoint" />
            <mxPoint x="1790" y="1920" as="targetPoint" />
          </mxGeometry>
        </mxCell>
        <mxCell id="RwaBKhQayg9tyCPEUvnC-36" value="" style="endArrow=none;html=1;rounded=0;entryX=0;entryY=0.5;entryDx=0;entryDy=0;" edge="1" parent="1" target="RwaBKhQayg9tyCPEUvnC-25">
          <mxGeometry width="50" height="50" relative="1" as="geometry">
            <mxPoint x="930" y="1677.333251953125" as="sourcePoint" />
            <mxPoint x="1323" y="3355" as="targetPoint" />
          </mxGeometry>
        </mxCell>
        <mxCell id="BmHOZUzM5J_liIm--0k--207" value="" style="endArrow=none;html=1;rounded=0;exitX=0;exitY=0.3333333333333333;exitDx=0;exitDy=0;exitPerimeter=0;entryX=1;entryY=0.5;entryDx=0;entryDy=0;" edge="1" parent="1" source="BmHOZUzM5J_liIm--0k--163" target="5CHCcjcD-UBx3tt80ufL-24">
          <mxGeometry width="50" height="50" relative="1" as="geometry">
            <mxPoint x="2949" y="2013" as="sourcePoint" />
            <mxPoint x="2090" y="1960" as="targetPoint" />
          </mxGeometry>
        </mxCell>
        <mxCell id="BmHOZUzM5J_liIm--0k--209" value="" style="endArrow=none;html=1;rounded=0;exitX=0;exitY=0.3333333333333333;exitDx=0;exitDy=0;exitPerimeter=0;entryX=1;entryY=0.5;entryDx=0;entryDy=0;" edge="1" parent="1" source="BmHOZUzM5J_liIm--0k--163" target="5CHCcjcD-UBx3tt80ufL-26">
          <mxGeometry width="50" height="50" relative="1" as="geometry">
            <mxPoint x="2899" y="1943" as="sourcePoint" />
            <mxPoint x="2040" y="1890" as="targetPoint" />
          </mxGeometry>
        </mxCell>
        <mxCell id="BmHOZUzM5J_liIm--0k--210" value="" style="endArrow=none;html=1;rounded=0;entryX=1;entryY=0.5;entryDx=0;entryDy=0;exitX=0;exitY=0.3333333333333333;exitDx=0;exitDy=0;exitPerimeter=0;" edge="1" parent="1" source="BmHOZUzM5J_liIm--0k--163" target="5CHCcjcD-UBx3tt80ufL-27">
          <mxGeometry width="50" height="50" relative="1" as="geometry">
            <mxPoint x="2260" y="1780" as="sourcePoint" />
            <mxPoint x="2210" y="1810" as="targetPoint" />
          </mxGeometry>
        </mxCell>
        <mxCell id="BmHOZUzM5J_liIm--0k--211" value="" style="endArrow=none;html=1;rounded=0;exitX=0;exitY=0.3333333333333333;exitDx=0;exitDy=0;exitPerimeter=0;entryX=1;entryY=0.5;entryDx=0;entryDy=0;" edge="1" parent="1" source="BmHOZUzM5J_liIm--0k--163" target="5CHCcjcD-UBx3tt80ufL-28">
          <mxGeometry width="50" height="50" relative="1" as="geometry">
            <mxPoint x="2629" y="2023" as="sourcePoint" />
            <mxPoint x="1770" y="1970" as="targetPoint" />
          </mxGeometry>
        </mxCell>
        <mxCell id="BmHOZUzM5J_liIm--0k--212" value="" style="endArrow=none;html=1;rounded=0;entryX=1;entryY=0.5;entryDx=0;entryDy=0;exitX=0;exitY=0.3333333333333333;exitDx=0;exitDy=0;exitPerimeter=0;" edge="1" parent="1" source="BmHOZUzM5J_liIm--0k--163" target="5CHCcjcD-UBx3tt80ufL-7">
          <mxGeometry width="50" height="50" relative="1" as="geometry">
            <mxPoint x="2589" y="2470" as="sourcePoint" />
            <mxPoint x="1730" y="2410" as="targetPoint" />
          </mxGeometry>
        </mxCell>
        <mxCell id="RwaBKhQayg9tyCPEUvnC-37" value="" style="endArrow=none;html=1;rounded=0;exitX=1;exitY=0.3333333333333333;exitDx=0;exitDy=0;exitPerimeter=0;entryX=0;entryY=0.5;entryDx=0;entryDy=0;" edge="1" parent="1" source="BmHOZUzM5J_liIm--0k--164" target="rgOc0uAUF-WR_RWAinjA-11">
          <mxGeometry width="50" height="50" relative="1" as="geometry">
            <mxPoint x="1015" y="3250" as="sourcePoint" />
            <mxPoint x="1438" y="3682" as="targetPoint" />
          </mxGeometry>
        </mxCell>
        <mxCell id="BmHOZUzM5J_liIm--0k--206" value="" style="endArrow=none;html=1;rounded=0;exitX=0;exitY=0.3333333333333333;exitDx=0;exitDy=0;exitPerimeter=0;entryX=1;entryY=0.5;entryDx=0;entryDy=0;" edge="1" parent="1" source="BmHOZUzM5J_liIm--0k--163" target="5CHCcjcD-UBx3tt80ufL-25">
          <mxGeometry width="50" height="50" relative="1" as="geometry">
            <mxPoint x="2919" y="1883" as="sourcePoint" />
            <mxPoint x="2060" y="1830" as="targetPoint" />
          </mxGeometry>
        </mxCell>
        <mxCell id="BmHOZUzM5J_liIm--0k--213" value="" style="endArrow=none;html=1;rounded=0;exitX=0;exitY=0.3333333333333333;exitDx=0;exitDy=0;exitPerimeter=0;entryX=1;entryY=0.5;entryDx=0;entryDy=0;" edge="1" parent="1" source="BmHOZUzM5J_liIm--0k--163" target="5CHCcjcD-UBx3tt80ufL-8">
          <mxGeometry width="50" height="50" relative="1" as="geometry">
            <mxPoint x="2939" y="1913" as="sourcePoint" />
            <mxPoint x="2080" y="1860" as="targetPoint" />
          </mxGeometry>
        </mxCell>
        <mxCell id="BmHOZUzM5J_liIm--0k--214" value="" style="endArrow=none;html=1;rounded=0;exitX=0;exitY=0.3333333333333333;exitDx=0;exitDy=0;exitPerimeter=0;entryX=1;entryY=0.5;entryDx=0;entryDy=0;" edge="1" parent="1" source="BmHOZUzM5J_liIm--0k--163" target="5CHCcjcD-UBx3tt80ufL-9">
          <mxGeometry width="50" height="50" relative="1" as="geometry">
            <mxPoint x="2599" y="2383" as="sourcePoint" />
            <mxPoint x="1740" y="2330" as="targetPoint" />
          </mxGeometry>
        </mxCell>
        <mxCell id="BmHOZUzM5J_liIm--0k--215" value="" style="endArrow=none;html=1;rounded=0;exitX=0;exitY=0.3333333333333333;exitDx=0;exitDy=0;exitPerimeter=0;entryX=1;entryY=0.5;entryDx=0;entryDy=0;" edge="1" parent="1" source="BmHOZUzM5J_liIm--0k--163" target="5CHCcjcD-UBx3tt80ufL-10">
          <mxGeometry width="50" height="50" relative="1" as="geometry">
            <mxPoint x="2939" y="2053" as="sourcePoint" />
            <mxPoint x="2080" y="2000" as="targetPoint" />
          </mxGeometry>
        </mxCell>
        <mxCell id="BmHOZUzM5J_liIm--0k--216" value="" style="endArrow=none;html=1;rounded=0;exitX=0;exitY=0.3333333333333333;exitDx=0;exitDy=0;exitPerimeter=0;entryX=1;entryY=0.5;entryDx=0;entryDy=0;" edge="1" parent="1" source="BmHOZUzM5J_liIm--0k--163" target="5CHCcjcD-UBx3tt80ufL-13">
          <mxGeometry width="50" height="50" relative="1" as="geometry">
            <mxPoint x="2799" y="2313" as="sourcePoint" />
            <mxPoint x="1940" y="2260" as="targetPoint" />
          </mxGeometry>
        </mxCell>
        <mxCell id="BmHOZUzM5J_liIm--0k--217" value="" style="endArrow=none;html=1;rounded=0;exitX=0;exitY=0.3333333333333333;exitDx=0;exitDy=0;exitPerimeter=0;entryX=1;entryY=0.5;entryDx=0;entryDy=0;" edge="1" parent="1" source="BmHOZUzM5J_liIm--0k--163" target="BmHOZUzM5J_liIm--0k--165">
          <mxGeometry width="50" height="50" relative="1" as="geometry">
            <mxPoint x="2769" y="2423" as="sourcePoint" />
            <mxPoint x="1910" y="2370" as="targetPoint" />
          </mxGeometry>
        </mxCell>
        <mxCell id="BmHOZUzM5J_liIm--0k--218" value="" style="endArrow=none;html=1;rounded=0;exitX=0;exitY=0.3333333333333333;exitDx=0;exitDy=0;exitPerimeter=0;entryX=1;entryY=0.5;entryDx=0;entryDy=0;" edge="1" parent="1" source="BmHOZUzM5J_liIm--0k--163" target="RwaBKhQayg9tyCPEUvnC-9">
          <mxGeometry width="50" height="50" relative="1" as="geometry">
            <mxPoint x="2669" y="2713" as="sourcePoint" />
            <mxPoint x="1810" y="2660" as="targetPoint" />
          </mxGeometry>
        </mxCell>
        <mxCell id="BmHOZUzM5J_liIm--0k--219" value="" style="endArrow=none;html=1;rounded=0;exitX=0;exitY=0.3333333333333333;exitDx=0;exitDy=0;exitPerimeter=0;entryX=1;entryY=0.5;entryDx=0;entryDy=0;" edge="1" parent="1" source="BmHOZUzM5J_liIm--0k--163" target="RwaBKhQayg9tyCPEUvnC-11">
          <mxGeometry width="50" height="50" relative="1" as="geometry">
            <mxPoint x="2719" y="2573" as="sourcePoint" />
            <mxPoint x="1860" y="2520" as="targetPoint" />
          </mxGeometry>
        </mxCell>
        <mxCell id="BmHOZUzM5J_liIm--0k--220" value="" style="endArrow=none;html=1;rounded=0;exitX=0;exitY=0.3333333333333333;exitDx=0;exitDy=0;exitPerimeter=0;entryX=1;entryY=0.5;entryDx=0;entryDy=0;" edge="1" parent="1" source="BmHOZUzM5J_liIm--0k--163" target="RwaBKhQayg9tyCPEUvnC-13">
          <mxGeometry width="50" height="50" relative="1" as="geometry">
            <mxPoint x="2749" y="2613" as="sourcePoint" />
            <mxPoint x="1890" y="2560" as="targetPoint" />
          </mxGeometry>
        </mxCell>
        <mxCell id="BmHOZUzM5J_liIm--0k--221" value="" style="endArrow=none;html=1;rounded=0;exitX=0;exitY=0.3333333333333333;exitDx=0;exitDy=0;exitPerimeter=0;entryX=1;entryY=0.5;entryDx=0;entryDy=0;" edge="1" parent="1" source="BmHOZUzM5J_liIm--0k--163" target="RwaBKhQayg9tyCPEUvnC-14">
          <mxGeometry width="50" height="50" relative="1" as="geometry">
            <mxPoint x="3029" y="2413" as="sourcePoint" />
            <mxPoint x="2170" y="2360" as="targetPoint" />
          </mxGeometry>
        </mxCell>
        <mxCell id="BmHOZUzM5J_liIm--0k--222" value="" style="endArrow=none;html=1;rounded=0;exitX=0;exitY=0.3333333333333333;exitDx=0;exitDy=0;exitPerimeter=0;entryX=1;entryY=0.5;entryDx=0;entryDy=0;" edge="1" parent="1" source="BmHOZUzM5J_liIm--0k--163" target="RwaBKhQayg9tyCPEUvnC-16">
          <mxGeometry width="50" height="50" relative="1" as="geometry">
            <mxPoint x="2749" y="2603" as="sourcePoint" />
            <mxPoint x="1890" y="2550" as="targetPoint" />
          </mxGeometry>
        </mxCell>
        <mxCell id="BmHOZUzM5J_liIm--0k--223" value="" style="endArrow=none;html=1;rounded=0;exitX=0;exitY=0.3333333333333333;exitDx=0;exitDy=0;exitPerimeter=0;entryX=1;entryY=0.5;entryDx=0;entryDy=0;" edge="1" parent="1" source="BmHOZUzM5J_liIm--0k--163" target="BmHOZUzM5J_liIm--0k--166">
          <mxGeometry width="50" height="50" relative="1" as="geometry">
            <mxPoint x="2659" y="3043" as="sourcePoint" />
            <mxPoint x="1800" y="2990" as="targetPoint" />
          </mxGeometry>
        </mxCell>
        <mxCell id="BmHOZUzM5J_liIm--0k--224" value="" style="endArrow=none;html=1;rounded=0;entryX=1;entryY=0.5;entryDx=0;entryDy=0;" edge="1" parent="1" target="RwaBKhQayg9tyCPEUvnC-23">
          <mxGeometry width="50" height="50" relative="1" as="geometry">
            <mxPoint x="2260" y="1770" as="sourcePoint" />
            <mxPoint x="1800" y="3120" as="targetPoint" />
          </mxGeometry>
        </mxCell>
        <mxCell id="BmHOZUzM5J_liIm--0k--225" value="" style="endArrow=none;html=1;rounded=0;exitX=0;exitY=0.3333333333333333;exitDx=0;exitDy=0;exitPerimeter=0;entryX=1;entryY=0.5;entryDx=0;entryDy=0;" edge="1" parent="1" source="BmHOZUzM5J_liIm--0k--163" target="RwaBKhQayg9tyCPEUvnC-27">
          <mxGeometry width="50" height="50" relative="1" as="geometry">
            <mxPoint x="2699" y="3253" as="sourcePoint" />
            <mxPoint x="1840" y="3200" as="targetPoint" />
          </mxGeometry>
        </mxCell>
        <mxCell id="RwaBKhQayg9tyCPEUvnC-38" value="" style="endArrow=none;html=1;rounded=0;exitX=1;exitY=0.5;exitDx=0;exitDy=0;" edge="1" parent="1" source="rgOc0uAUF-WR_RWAinjA-12">
          <mxGeometry width="50" height="50" relative="1" as="geometry">
            <mxPoint x="2210" y="3600" as="sourcePoint" />
            <mxPoint x="2250" y="1770" as="targetPoint" />
          </mxGeometry>
        </mxCell>
        <mxCell id="BmHOZUzM5J_liIm--0k--227" value="" style="endArrow=none;html=1;rounded=0;exitX=0;exitY=0.3333333333333333;exitDx=0;exitDy=0;exitPerimeter=0;entryX=1;entryY=0.5;entryDx=0;entryDy=0;" edge="1" parent="1" source="BmHOZUzM5J_liIm--0k--163" target="rgOc0uAUF-WR_RWAinjA-9">
          <mxGeometry width="50" height="50" relative="1" as="geometry">
            <mxPoint x="2819" y="3273" as="sourcePoint" />
            <mxPoint x="1960" y="3220" as="targetPoint" />
          </mxGeometry>
        </mxCell>
        <mxCell id="RwaBKhQayg9tyCPEUvnC-39" value="" style="endArrow=none;html=1;rounded=0;exitX=1;exitY=0.5;exitDx=0;exitDy=0;" edge="1" parent="1" source="rgOc0uAUF-WR_RWAinjA-16">
          <mxGeometry width="50" height="50" relative="1" as="geometry">
            <mxPoint x="1940" y="3790" as="sourcePoint" />
            <mxPoint x="2250" y="1770" as="targetPoint" />
          </mxGeometry>
        </mxCell>
        <mxCell id="BmHOZUzM5J_liIm--0k--226" value="" style="endArrow=none;html=1;rounded=0;exitX=0;exitY=0.3333333333333333;exitDx=0;exitDy=0;exitPerimeter=0;entryX=1;entryY=0.5;entryDx=0;entryDy=0;" edge="1" parent="1" source="BmHOZUzM5J_liIm--0k--163" target="RwaBKhQayg9tyCPEUvnC-24">
          <mxGeometry width="50" height="50" relative="1" as="geometry">
            <mxPoint x="2709" y="2923" as="sourcePoint" />
            <mxPoint x="1400" y="3460" as="targetPoint" />
          </mxGeometry>
        </mxCell>
        <mxCell id="BmHOZUzM5J_liIm--0k--228" value="" style="endArrow=none;html=1;rounded=0;exitX=0;exitY=0.3333333333333333;exitDx=0;exitDy=0;exitPerimeter=0;entryX=1;entryY=0.5;entryDx=0;entryDy=0;" edge="1" parent="1" source="BmHOZUzM5J_liIm--0k--163" target="rgOc0uAUF-WR_RWAinjA-10">
          <mxGeometry width="50" height="50" relative="1" as="geometry">
            <mxPoint x="2889" y="3443" as="sourcePoint" />
            <mxPoint x="2030" y="3390" as="targetPoint" />
          </mxGeometry>
        </mxCell>
        <mxCell id="BmHOZUzM5J_liIm--0k--230" value="" style="endArrow=none;html=1;rounded=0;exitX=1;exitY=0.3333333333333333;exitDx=0;exitDy=0;exitPerimeter=0;entryX=0;entryY=0.5;entryDx=0;entryDy=0;" edge="1" parent="1" source="BmHOZUzM5J_liIm--0k--162" target="BmHOZUzM5J_liIm--0k--143">
          <mxGeometry width="50" height="50" relative="1" as="geometry">
            <mxPoint x="950" y="220" as="sourcePoint" />
            <mxPoint x="1304" y="221" as="targetPoint" />
          </mxGeometry>
        </mxCell>
      </root>
    </mxGraphModel>
  </diagram>
</mxfile>
